<svg version="1.1" xmlns="http://www.w3.org/2000/svg" xmlns:xlink="http://www.w3.org/1999/xlink" width="119.83332" height="128.16666" viewBox="0,0,119.83332,128.16666"><g transform="translate(-180.08334,-115.91667)"><g data-paper-data="{&quot;isPaintingLayer&quot;:true}" fill-rule="nonzero" stroke="#000000" stroke-width="2.5" stroke-linecap="butt" stroke-linejoin="miter" stroke-miterlimit="10" stroke-dasharray="" stroke-dashoffset="0" style="mix-blend-mode: normal"><path d="M226.75047,148.56715l57.57647,15.65444l-3.41074,12.54459l-57.57647,-15.65444z" fill="#ffd200"/><path d="M223.08554,201.02372l56.95299,-17.78955l3.87593,12.40875l-56.95299,17.78955z" fill="#ffd200"/><path d="M219.5,141.5c21.07887,0 38.16666,17.0878 38.16666,38.16666c0,21.07887 -17.0878,38.16667 -38.16666,38.16667c-21.07887,0 -38.16666,-17.0878 -38.16666,-38.16667c0,-21.07887 17.08779,-38.16666 38.16666,-38.16666z" fill="#ffd200"/><path d="M266.33333,174.83333l32.33333,0l0,10l-32.33333,0z" fill="#000000"/><path d="M219.5,180.83333c-4.32623,0 -7.83333,-14.25227 -7.83333,-31.83333c0,-17.58106 3.5071,-31.83333 7.83333,-31.83333c4.32623,0 7.83333,14.25227 7.83333,31.83333c0,17.58106 -3.5071,31.83333 -7.83333,31.83333z" fill="#5aff00"/><path d="M219.16667,242.83333c-4.32623,0 -7.83334,-14.25227 -7.83334,-31.83333c0,-17.58106 3.5071,-31.83333 7.83334,-31.83333c4.32623,0 7.83334,14.25227 7.83334,31.83333c0,17.58107 -3.5071,31.83333 -7.83334,31.83333z" fill="#5aff00"/></g></g></svg>