<svg version="1.1" xmlns="http://www.w3.org/2000/svg" xmlns:xlink="http://www.w3.org/1999/xlink" width="611.00002" height="417.88531" viewBox="0,0,611.00002,417.88531"><g transform="translate(68.33334,11.21862)"><g stroke="none" stroke-miterlimit="10"><path d="M-0.83331,66.66666v-68h68v68z" fill="#ffad00" stroke-width="0"/><path d="M66.83334,66.66666v-68h68v68z" fill="#ff7d00" stroke-width="0"/><path d="M134.83335,66.66669v-68h68v68z" fill="#ffad00" stroke-width="0"/><path d="M202.50004,66.66669v-68h68v68z" fill="#ff7d00" stroke-width="0"/><path d="M270.16668,66.66666v-68h68v68z" fill="#ffad00" stroke-width="0"/><path d="M337.8334,66.66666v-68h68v68z" fill="#ff7d00" stroke-width="0"/><path d="M405.8334,66.66666v-68h68v68z" fill="#ffad00" stroke-width="0"/><path d="M473.50003,67.16666v-68h68v68z" fill="#ff7d00" stroke-width="0"/><path d="M-68.33334,134.66669v-68h68v68z" fill="#ffad00" stroke-width="0"/><path d="M-0.66665,134.66669v-68h68v68z" fill="#ff7d00" stroke-width="0"/><path d="M67.33334,134.66669v-68h68v68z" fill="#ffad00" stroke-width="0"/><path d="M135,134.66669v-68h68v68z" fill="#ff7d00" stroke-width="0"/><path d="M202.6667,134.66669v-68h68v68z" fill="#ffad00" stroke-width="0"/><path d="M270.33333,134.66669v-68h68v68z" fill="#ff7d00" stroke-width="0"/><path d="M338.3334,134.66669v-68h68v68z" fill="#ffad00" stroke-width="0"/><path d="M406.00007,134.66669v-68h68v68z" fill="#ff7d00" stroke-width="0"/><path d="M473.66669,134.66669v-68h68v68z" fill="#ffad00" stroke-width="0"/><path d="M0.16669,202.66669v-68h68v68z" fill="#ffad00" stroke-width="0"/><path d="M67.83334,202.66669v-68h68v68z" fill="#ff7d00" stroke-width="0"/><path d="M135.83335,202.66669v-68h68v68z" fill="#ffad00" stroke-width="0"/><path d="M203.00004,202.66669v-68h68v68z" fill="#ff7d00" stroke-width="0"/><path d="M270.66668,202.66669v-68h68v68z" fill="#ffad00" stroke-width="0"/><path d="M338.8334,202.66669v-68h68v68z" fill="#ff7d00" stroke-width="0"/><path d="M406.8334,202.66669v-68h68v68z" fill="#ffad00" stroke-width="0"/><path d="M474.50003,202.66669v-68h68v68z" fill="#ff7d00" stroke-width="0"/><path d="M-67.33334,270.66667v-68h68v68z" fill="#ffad00" stroke-width="0"/><path d="M0.33335,270.66667v-68h68v68z" fill="#ff7d00" stroke-width="0"/><path d="M68.33334,270.66667v-68h68v68z" fill="#ffad00" stroke-width="0"/><path d="M136,270.66667v-68h68v68z" fill="#ff7d00" stroke-width="0"/><path d="M203.6667,270.66667v-68h68v68z" fill="#ffad00" stroke-width="0"/><path d="M271.33333,270.66667v-68h68v68z" fill="#ff7d00" stroke-width="0"/><path d="M339.3334,270.66667v-68h68v68z" fill="#ffad00" stroke-width="0"/><path d="M407.00007,270.66667v-68h68v68z" fill="#ff7d00" stroke-width="0"/><path d="M474.66669,270.66667v-68h68v68z" fill="#ffad00" stroke-width="0"/><path d="M0.16669,338.66669v-68h68v68z" fill="#ffad00" stroke-width="0"/><path d="M67.83334,338.66669v-68h68v68z" fill="#ff7d00" stroke-width="0"/><path d="M135.83335,338.66669v-68h68v68z" fill="#ffad00" stroke-width="0"/><path d="M203.50004,338.66669v-68h68v68z" fill="#ff7d00" stroke-width="0"/><path d="M271.16668,338.66669v-68h68v68z" fill="#ffad00" stroke-width="0"/><path d="M338.8334,338.66669v-68h68v68z" fill="#ff7d00" stroke-width="0"/><path d="M406.8334,338.66669v-68h68v68z" fill="#ffad00" stroke-width="0"/><path d="M474.50003,338.66669v-68h68v68z" fill="#ff7d00" stroke-width="0"/><path d="M-67.33334,406.66669v-68h68v68z" fill="#ffad00" stroke-width="0"/><path d="M0.33335,406.66669v-68h68v68z" fill="#ff7d00" stroke-width="0"/><path d="M68.33334,406.66669v-68h68v68z" fill="#ffad00" stroke-width="0"/><path d="M136,406.66669v-68h68v68z" fill="#ff7d00" stroke-width="0"/><path d="M203.6667,406.66669v-68h68v68z" fill="#ffad00" stroke-width="0"/><path d="M271.33333,406.66669v-68h68v68z" fill="#ff7d00" stroke-width="0"/><path d="M339.3334,406.66669v-68h68v68z" fill="#ffad00" stroke-width="0"/><path d="M407.00007,406.66669v-68h68v68z" fill="#ff7d00" stroke-width="0"/><path d="M474.66669,406.66669v-68h68v68z" fill="#ffad00" stroke-width="0"/><text transform="translate(129.35266,54.51875) scale(1.30173,1.30173)" font-size="40" xml:space="preserve" fill="#ffffff" stroke-width="1" font-family="Pixel" font-weight="normal" text-anchor="start"><tspan x="0" dy="0">Credits:</tspan></text><text transform="translate(18.93631,172.86567) scale(0.61836,0.61836)" font-size="40" xml:space="preserve" fill="#ffffff" stroke-width="1" font-family="Pixel" font-weight="normal" text-anchor="start"><tspan x="0" dy="0">Game (code, design, idea, etc.): Filly</tspan><tspan x="0" dy="46.15px">Main Menu OST: Formerly </tspan><tspan x="0" dy="46.15px">BlixerTheGamer Now </tspan><tspan x="0" dy="46.15px">Enhancements: Lexi</tspan><tspan x="0" dy="46.15px">Ports to other platforms: NateXS</tspan><tspan x="0" dy="46.15px">(yes it's because of the scratch</tspan><tspan x="0" dy="46.15px">Everywhere run time)</tspan></text></g></g></svg>