<svg version="1.1" xmlns="http://www.w3.org/2000/svg" xmlns:xlink="http://www.w3.org/1999/xlink" width="611.00001" height="408.00001" viewBox="0,0,611.00001,408.00001"><g transform="translate(68.33334,1.33334)"><g data-paper-data="{&quot;isPaintingLayer&quot;:true}" fill-rule="nonzero" stroke="none" stroke-width="0" stroke-linecap="butt" stroke-linejoin="miter" stroke-miterlimit="10" stroke-dasharray="" stroke-dashoffset="0" style="mix-blend-mode: normal"><path d="M-0.83333,66.66666v-68h68v68z" fill="#ffad00"/><path d="M66.83333,66.66666v-68h68v68z" fill="#ff7d00"/><path d="M134.83333,66.66668v-68h68v68z" fill="#ffad00"/><path d="M202.50001,66.66668v-68h68v68z" fill="#ff7d00"/><path d="M270.16668,66.66666v-68h68v68z" fill="#ffad00"/><path d="M337.83334,66.66666v-68h68v68z" fill="#ff7d00"/><path d="M405.83334,66.66666v-68h68v68z" fill="#ffad00"/><path d="M473.50001,67.16666v-68h68v68z" fill="#ff7d00"/><path d="M-68.33334,134.66668v-68h68v68z" fill="#ffad00"/><path d="M-0.66667,134.66668v-68h68v68z" fill="#ff7d00"/><path d="M67.33333,134.66668v-68h68v68z" fill="#ffad00"/><path d="M135,134.66668v-68h68v68z" fill="#ff7d00"/><path d="M202.66668,134.66668v-68h68v68z" fill="#ffad00"/><path d="M270.33333,134.66668v-68h68v68z" fill="#ff7d00"/><path d="M338.33334,134.66668v-68h68v68z" fill="#ffad00"/><path d="M406.00001,134.66668v-68h68v68z" fill="#ff7d00"/><path d="M473.66667,134.66668v-68h68v68z" fill="#ffad00"/><path d="M0.16667,202.66668v-68h68v68z" fill="#ffad00"/><path d="M67.83333,202.66668v-68h68v68z" fill="#ff7d00"/><path d="M135.83333,202.66668v-68h68v68z" fill="#ffad00"/><path d="M203.00001,202.66668v-68h68v68z" fill="#ff7d00"/><path d="M270.66668,202.66668v-68h68v68z" fill="#ffad00"/><path d="M338.83334,202.66668v-68h68v68z" fill="#ff7d00"/><path d="M406.83334,202.66668v-68h68v68z" fill="#ffad00"/><path d="M474.50001,202.66668v-68h68v68z" fill="#ff7d00"/><path d="M-67.33334,270.66666v-68h68v68z" fill="#ffad00"/><path d="M0.33333,270.66666v-68h68v68z" fill="#ff7d00"/><path d="M68.33333,270.66666v-68h68v68z" fill="#ffad00"/><path d="M136,270.66666v-68h68v68z" fill="#ff7d00"/><path d="M203.66668,270.66666v-68h68v68z" fill="#ffad00"/><path d="M271.33333,270.66666v-68h68v68z" fill="#ff7d00"/><path d="M339.33334,270.66666v-68h68v68z" fill="#ffad00"/><path d="M407.00001,270.66666v-68h68v68z" fill="#ff7d00"/><path d="M474.66667,270.66666v-68h68v68z" fill="#ffad00"/><path d="M0.16667,338.66668v-68h68v68z" fill="#ffad00"/><path d="M67.83333,338.66668v-68h68v68z" fill="#ff7d00"/><path d="M135.83333,338.66668v-68h68v68z" fill="#ffad00"/><path d="M203.50001,338.66668v-68h68v68z" fill="#ff7d00"/><path d="M271.16668,338.66668v-68h68v68z" fill="#ffad00"/><path d="M338.83334,338.66668v-68h68v68z" fill="#ff7d00"/><path d="M406.83334,338.66668v-68h68v68z" fill="#ffad00"/><path d="M474.50001,338.66668v-68h68v68z" fill="#ff7d00"/><path d="M-67.33334,406.66668v-68h68v68z" fill="#ffad00"/><path d="M0.33333,406.66668v-68h68v68z" fill="#ff7d00"/><path d="M68.33333,406.66668v-68h68v68z" fill="#ffad00"/><path d="M136,406.66668v-68h68v68z" fill="#ff7d00"/><path d="M203.66668,406.66668v-68h68v68z" fill="#ffad00"/><path d="M271.33333,406.66668v-68h68v68z" fill="#ff7d00"/><path d="M339.33334,406.66668v-68h68v68z" fill="#ffad00"/><path d="M407.00001,406.66668v-68h68v68z" fill="#ff7d00"/><path d="M474.66667,406.66668v-68h68v68z" fill="#ffad00"/></g></g></svg>