<svg version="1.1" xmlns="http://www.w3.org/2000/svg" xmlns:xlink="http://www.w3.org/1999/xlink" width="81.72759" height="163.09684" viewBox="0,0,81.72759,163.09684"><g transform="translate(-200.66305,-89.34729)"><g stroke-miterlimit="10"><text transform="translate(208.40732,245.26917) scale(0.68333,0.68333)" font-size="40" xml:space="preserve" fill="#ffffff" stroke="none" stroke-width="1" font-family="Pixel" font-weight="normal" text-anchor="start"><tspan x="0" dy="0">Bimo</tspan></text><path d="M261.70518,178.35883l-44.98548,1.14297l-1.14297,-44.98548l44.98548,-1.14297z" fill="#009cff" stroke="#000000" stroke-width="2.5"/><path d="M202.17441,178.93005l17.20451,-70.28243l15.31292,3.74846l-17.20451,70.28243z" fill="#f1e967" stroke="#000000" stroke-width="2.5"/><path d="M265.88066,181.75732l-23.3206,-68.49645l14.92381,-5.08102l23.3206,68.49645z" fill="#f1e967" stroke="#000000" stroke-width="2.5"/><path d="M232.79782,130.13451l-0.99592,-39.19786l12.12305,-0.30802l0.99592,39.19786z" fill="#000000" stroke="#000000" stroke-width="2.5"/><path d="M240.06331,212.4195c-17.1153,0.43486 -31.34252,-13.08733 -31.77738,-30.20262c-0.43486,-17.11531 13.08733,-31.34252 30.20262,-31.77738c17.1153,-0.43486 31.34252,13.08732 31.77738,30.20262c0.43486,17.1153 -13.08733,31.34252 -30.20262,31.77738z" fill="#009cff" stroke="#000000" stroke-width="2.5"/></g></g></svg>