<svg version="1.1" xmlns="http://www.w3.org/2000/svg" xmlns:xlink="http://www.w3.org/1999/xlink" width="252.16666" height="156.12491" viewBox="0,0,252.16666,156.12491"><g transform="translate(-113.91667,-99.58336)"><g data-paper-data="{&quot;isPaintingLayer&quot;:true}" fill-rule="nonzero" stroke-linecap="butt" stroke-linejoin="miter" stroke-miterlimit="10" stroke-dasharray="" stroke-dashoffset="0" style="mix-blend-mode: normal"><path d="M208.90049,172.74955l15.65444,-57.57647l12.54459,3.41074l-15.65444,57.57647z" fill="#000000" stroke="#000000" stroke-width="2.5"/><path d="M364.83333,180c0,4.32623 -55.88979,7.83333 -124.83333,7.83333c-68.94355,0 -124.83333,-3.5071 -124.83333,-7.83333c0,-4.32623 55.88979,-7.83333 124.83333,-7.83333c68.94355,0 124.83333,3.5071 124.83333,7.83333z" fill="#84edff" stroke="#000000" stroke-width="2.5"/><path d="M261.35706,176.41448l-17.78955,-56.95299l12.40875,-3.87593l17.78955,56.95299z" fill="#000000" stroke="#000000" stroke-width="2.5"/><path d="M201.83334,180.00002c0,-21.07887 17.0878,-38.16666 38.16666,-38.16666c21.07887,0 38.16667,17.0878 38.16667,38.16666c0,21.07887 -17.0878,38.16666 -38.16667,38.16666c-21.07887,0 -38.16666,-17.08779 -38.16666,-38.16666z" fill="#ffd200" stroke="#000000" stroke-width="2.5"/><path d="M235.16668,133.16669v-32.33333h10v32.33333z" fill="#000000" stroke="#000000" stroke-width="2.5"/><text transform="translate(169.95868,248.5333) scale(0.68333,0.68333)" font-size="40" xml:space="preserve" fill="#ffffff" fill-rule="nonzero" stroke="none" stroke-width="1" stroke-linecap="butt" stroke-linejoin="miter" stroke-miterlimit="10" stroke-dasharray="" stroke-dashoffset="0" font-family="Pixel" font-weight="normal" text-anchor="start" style="mix-blend-mode: normal"><tspan x="0" dy="0">Salsa Bee</tspan></text><path d="M268.16667,180c0,5.15466 -12.61065,9.33333 -28.16667,9.33333c-15.55602,0 -28.16667,-4.17868 -28.16667,-9.33333c0,-5.15466 12.61065,-9.33333 28.16667,-9.33333c15.55602,0 28.16667,4.17868 28.16667,9.33333z" fill="#b39c00" stroke="#000000" stroke-width="2.5"/><path d="M215.16667,180.33333c0,-3.22166 2.61167,-5.83333 5.83333,-5.83333c3.22166,0 5.83333,2.61167 5.83333,5.83333c0,3.22166 -2.61167,5.83333 -5.83333,5.83333c-3.22166,0 -5.83333,-2.61167 -5.83333,-5.83333z" fill="#000000" stroke="#000000" stroke-width="2.5"/><path d="M253.16667,180.33333c0,-3.22166 2.61167,-5.83333 5.83333,-5.83333c3.22166,0 5.83333,2.61167 5.83333,5.83333c0,3.22166 -2.61167,5.83333 -5.83333,5.83333c-3.22166,0 -5.83333,-2.61167 -5.83333,-5.83333z" fill="#000000" stroke="#000000" stroke-width="2.5"/><path d="M221.16667,181c0,-1.38071 3.28325,-2.5 7.33333,-2.5c4.05009,0 7.33334,1.11929 7.33334,2.5c0,1.38071 -3.28325,2.5 -7.33334,2.5c-4.05009,0 -7.33333,-1.11929 -7.33333,-2.5z" fill="#000000" stroke="#000000" stroke-width="2.5"/><path d="M241.5,181c0,-1.38071 3.28325,-2.5 7.33334,-2.5c4.05008,0 7.33334,1.11929 7.33334,2.5c0,1.38071 -3.28325,2.5 -7.33334,2.5c-4.05008,0 -7.33334,-1.11929 -7.33334,-2.5z" fill="#000000" stroke="#000000" stroke-width="2.5"/></g></g></svg>