<svg version="1.1" xmlns="http://www.w3.org/2000/svg" xmlns:xlink="http://www.w3.org/1999/xlink" width="128.16666" height="156.14225" viewBox="0,0,128.16666,156.14225"><g transform="translate(-176.25001,-99.58334)"><g data-paper-data="{&quot;isPaintingLayer&quot;:true}" fill-rule="nonzero" stroke-linecap="butt" stroke-linejoin="miter" stroke-miterlimit="10" stroke-dasharray="" stroke-dashoffset="0" style="mix-blend-mode: normal"><path d="M208.90049,172.74953l15.65444,-57.57647l12.54459,3.41074l-15.65444,57.57647z" fill="#ffd200" stroke="#000000" stroke-width="2.5"/><path d="M261.35706,176.41446l-17.78955,-56.95299l12.40875,-3.87593l17.78955,56.95299z" fill="#ffd200" stroke="#000000" stroke-width="2.5"/><path d="M201.83334,180c0,-21.07887 17.0878,-38.16666 38.16666,-38.16666c21.07887,0 38.16667,17.0878 38.16667,38.16666c0,21.07887 -17.0878,38.16666 -38.16667,38.16666c-21.07887,0 -38.16666,-17.08779 -38.16666,-38.16666z" fill="#ffd200" stroke="#000000" stroke-width="2.5"/><path d="M235.16667,133.16667v-32.33333h10v32.33333z" fill="#000000" stroke="#000000" stroke-width="2.5"/><path d="M241.16667,180c0,4.32623 -14.25227,7.83333 -31.83333,7.83333c-17.58106,0 -31.83333,-3.5071 -31.83333,-7.83333c0,-4.32623 14.25227,-7.83333 31.83333,-7.83333c17.58106,0 31.83333,3.5071 31.83333,7.83333z" fill="#5aff00" stroke="#000000" stroke-width="2.5"/><path d="M303.16667,180.33333c0,4.32623 -14.25227,7.83334 -31.83333,7.83334c-17.58106,0 -31.83333,-3.5071 -31.83333,-7.83334c0,-4.32623 14.25227,-7.83334 31.83333,-7.83334c17.58107,0 31.83333,3.5071 31.83333,7.83334z" fill="#5aff00" stroke="#000000" stroke-width="2.5"/><text transform="translate(212.66667,248.55063) scale(0.68333,0.68333)" font-size="40" xml:space="preserve" fill="#ffffff" fill-rule="nonzero" stroke="none" stroke-width="1" stroke-linecap="butt" stroke-linejoin="miter" stroke-miterlimit="10" stroke-dasharray="" stroke-dashoffset="0" font-family="Pixel" font-weight="normal" text-anchor="start" style="mix-blend-mode: normal"><tspan x="0" dy="0">Filly</tspan></text></g></g></svg>