<svg version="1.1" xmlns="http://www.w3.org/2000/svg" xmlns:xlink="http://www.w3.org/1999/xlink" width="611.00005" height="420.7833" viewBox="0,0,611.00005,420.7833"><g transform="translate(68.33334,14.11659)"><g data-paper-data="{&quot;isPaintingLayer&quot;:true}" fill-rule="nonzero" stroke="none" stroke-linecap="butt" stroke-linejoin="miter" stroke-miterlimit="10" stroke-dasharray="" stroke-dashoffset="0" style="mix-blend-mode: normal"><path d="M-0.83331,66.66666v-68h68v68z" fill="#ffad00" stroke-width="0"/><path d="M66.83334,66.66666v-68h68v68z" fill="#ff7d00" stroke-width="0"/><path d="M134.83335,66.6667v-68h68v68z" fill="#ffad00" stroke-width="0"/><path d="M202.50003,66.6667v-68h68v68z" fill="#ff7d00" stroke-width="0"/><path d="M270.16668,66.66666v-68h68v68z" fill="#ffad00" stroke-width="0"/><path d="M337.83339,66.66666v-68h68v68z" fill="#ff7d00" stroke-width="0"/><path d="M405.83339,66.66666v-68h68v68z" fill="#ffad00" stroke-width="0"/><path d="M473.50003,67.16666v-68h68v68z" fill="#ff7d00" stroke-width="0"/><path d="M-68.33334,134.6667v-68h68v68z" fill="#ffad00" stroke-width="0"/><path d="M-0.66665,134.6667v-68h68v68z" fill="#ff7d00" stroke-width="0"/><path d="M67.33334,134.6667v-68h68v68z" fill="#ffad00" stroke-width="0"/><path d="M135,134.6667v-68h68v68z" fill="#ff7d00" stroke-width="0"/><path d="M202.6667,134.6667v-68h68v68z" fill="#ffad00" stroke-width="0"/><path d="M270.33333,134.6667v-68h68v68z" fill="#ff7d00" stroke-width="0"/><path d="M338.33339,134.6667v-68h68v68z" fill="#ffad00" stroke-width="0"/><path d="M406.00006,134.6667v-68h68v68z" fill="#ff7d00" stroke-width="0"/><path d="M473.66671,134.6667v-68h68v68z" fill="#ffad00" stroke-width="0"/><path d="M0.16669,202.6667v-68h68v68z" fill="#ffad00" stroke-width="0"/><path d="M67.83334,202.6667v-68h68v68z" fill="#ff7d00" stroke-width="0"/><path d="M135.83335,202.6667v-68h68v68z" fill="#ffad00" stroke-width="0"/><path d="M203.00003,202.6667v-68h68v68z" fill="#ff7d00" stroke-width="0"/><path d="M270.66668,202.6667v-68h68v68z" fill="#ffad00" stroke-width="0"/><path d="M338.83339,202.6667v-68h68v68z" fill="#ff7d00" stroke-width="0"/><path d="M406.83339,202.6667v-68h68v68z" fill="#ffad00" stroke-width="0"/><path d="M474.50003,202.6667v-68h68v68z" fill="#ff7d00" stroke-width="0"/><path d="M-67.33334,270.66668v-68h68v68z" fill="#ffad00" stroke-width="0"/><path d="M0.33335,270.66668v-68h68v68z" fill="#ff7d00" stroke-width="0"/><path d="M68.33334,270.66668v-68h68v68z" fill="#ffad00" stroke-width="0"/><path d="M136,270.66668v-68h68v68z" fill="#ff7d00" stroke-width="0"/><path d="M203.6667,270.66668v-68h68v68z" fill="#ffad00" stroke-width="0"/><path d="M271.33333,270.66668v-68h68v68z" fill="#ff7d00" stroke-width="0"/><path d="M339.33339,270.66668v-68h68v68z" fill="#ffad00" stroke-width="0"/><path d="M407.00006,270.66668v-68h68v68z" fill="#ff7d00" stroke-width="0"/><path d="M474.66671,270.66668v-68h68v68z" fill="#ffad00" stroke-width="0"/><path d="M0.16669,338.66671v-68h68v68z" fill="#ffad00" stroke-width="0"/><path d="M67.83334,338.66671v-68h68v68z" fill="#ff7d00" stroke-width="0"/><path d="M135.83335,338.66671v-68h68v68z" fill="#ffad00" stroke-width="0"/><path d="M203.50003,338.66671v-68h68v68z" fill="#ff7d00" stroke-width="0"/><path d="M271.16668,338.66671v-68h68v68z" fill="#ffad00" stroke-width="0"/><path d="M338.83339,338.66671v-68h68v68z" fill="#ff7d00" stroke-width="0"/><path d="M406.83339,338.66671v-68h68v68z" fill="#ffad00" stroke-width="0"/><path d="M474.50003,338.66671v-68h68v68z" fill="#ff7d00" stroke-width="0"/><path d="M-67.33334,406.66671v-68h68v68z" fill="#ffad00" stroke-width="0"/><path d="M0.33335,406.66671v-68h68v68z" fill="#ff7d00" stroke-width="0"/><path d="M68.33334,406.66671v-68h68v68z" fill="#ffad00" stroke-width="0"/><path d="M136,406.66671v-68h68v68z" fill="#ff7d00" stroke-width="0"/><path d="M203.6667,406.66671v-68h68v68z" fill="#ffad00" stroke-width="0"/><path d="M271.33333,406.66671v-68h68v68z" fill="#ff7d00" stroke-width="0"/><path d="M339.33339,406.66671v-68h68v68z" fill="#ffad00" stroke-width="0"/><path d="M407.00006,406.66671v-68h68v68z" fill="#ff7d00" stroke-width="0"/><path d="M474.66671,406.66671v-68h68v68z" fill="#ffad00" stroke-width="0"/><text transform="translate(109.827,51.62077) scale(1.30173,1.30173)" font-size="40" xml:space="preserve" fill="#ffffff" fill-rule="nonzero" stroke="none" stroke-width="1" stroke-linecap="butt" stroke-linejoin="miter" stroke-miterlimit="10" stroke-dasharray="" stroke-dashoffset="0" font-family="Pixel" font-weight="normal" text-anchor="start" style="mix-blend-mode: normal"><tspan x="0" dy="0">Settings:</tspan></text></g></g></svg>