<svg version="1.1" xmlns="http://www.w3.org/2000/svg" xmlns:xlink="http://www.w3.org/1999/xlink" width="611.00006" height="408.00005" viewBox="0,0,611.00006,408.00005"><g transform="translate(68.33334,1.33334)"><g data-paper-data="{&quot;isPaintingLayer&quot;:true}" fill-rule="nonzero" stroke="none" stroke-linecap="butt" stroke-linejoin="miter" stroke-miterlimit="10" stroke-dasharray="" stroke-dashoffset="0" style="mix-blend-mode: normal"><path d="M-0.8333,66.66666v-68h68v68z" fill="#ffad00" stroke-width="0"/><path d="M66.83334,66.66666v-68h68v68z" fill="#ff7d00" stroke-width="0"/><path d="M134.83336,66.6667v-68h68v68z" fill="#ffad00" stroke-width="0"/><path d="M202.50005,66.6667v-68h68v68z" fill="#ff7d00" stroke-width="0"/><path d="M270.16668,66.66666v-68h68v68z" fill="#ffad00" stroke-width="0"/><path d="M337.83341,66.66666v-68h68v68z" fill="#ff7d00" stroke-width="0"/><path d="M405.83341,66.66666v-68h68v68z" fill="#ffad00" stroke-width="0"/><path d="M473.50005,67.16666v-68h68v68z" fill="#ff7d00" stroke-width="0"/><path d="M-68.33334,134.6667v-68h68v68z" fill="#ffad00" stroke-width="0"/><path d="M-0.66664,134.6667v-68h68v68z" fill="#ff7d00" stroke-width="0"/><path d="M67.33334,134.6667v-68h68v68z" fill="#ffad00" stroke-width="0"/><path d="M135,134.6667v-68h68v68z" fill="#ff7d00" stroke-width="0"/><path d="M202.66671,134.6667v-68h68v68z" fill="#ffad00" stroke-width="0"/><path d="M270.33333,134.6667v-68h68v68z" fill="#ff7d00" stroke-width="0"/><path d="M338.33341,134.6667v-68h68v68z" fill="#ffad00" stroke-width="0"/><path d="M406.00008,134.6667v-68h68v68z" fill="#ff7d00" stroke-width="0"/><path d="M473.66672,134.6667v-68h68v68z" fill="#ffad00" stroke-width="0"/><path d="M0.1667,202.6667v-68h68v68z" fill="#ffad00" stroke-width="0"/><path d="M67.83334,202.6667v-68h68v68z" fill="#ff7d00" stroke-width="0"/><path d="M135.83336,202.6667v-68h68v68z" fill="#ffad00" stroke-width="0"/><path d="M203.00005,202.6667v-68h68v68z" fill="#ff7d00" stroke-width="0"/><path d="M270.66668,202.6667v-68h68v68z" fill="#ffad00" stroke-width="0"/><path d="M338.83341,202.6667v-68h68v68z" fill="#ff7d00" stroke-width="0"/><path d="M406.83341,202.6667v-68h68v68z" fill="#ffad00" stroke-width="0"/><path d="M474.50005,202.6667v-68h68v68z" fill="#ff7d00" stroke-width="0"/><path d="M-67.33334,270.66668v-68h68v68z" fill="#ffad00" stroke-width="0"/><path d="M0.33336,270.66668v-68h68v68z" fill="#ff7d00" stroke-width="0"/><path d="M68.33334,270.66668v-68h68v68z" fill="#ffad00" stroke-width="0"/><path d="M136,270.66668v-68h68v68z" fill="#ff7d00" stroke-width="0"/><path d="M203.66671,270.66668v-68h68v68z" fill="#ffad00" stroke-width="0"/><path d="M271.33333,270.66668v-68h68v68z" fill="#ff7d00" stroke-width="0"/><path d="M339.33341,270.66668v-68h68v68z" fill="#ffad00" stroke-width="0"/><path d="M407.00008,270.66668v-68h68v68z" fill="#ff7d00" stroke-width="0"/><path d="M474.66672,270.66668v-68h68v68z" fill="#ffad00" stroke-width="0"/><path d="M0.1667,338.66671v-68h68v68z" fill="#ffad00" stroke-width="0"/><path d="M67.83334,338.66671v-68h68v68z" fill="#ff7d00" stroke-width="0"/><path d="M135.83336,338.66671v-68h68v68z" fill="#ffad00" stroke-width="0"/><path d="M203.50005,338.66671v-68h68v68z" fill="#ff7d00" stroke-width="0"/><path d="M271.16668,338.66671v-68h68v68z" fill="#ffad00" stroke-width="0"/><path d="M338.83341,338.66671v-68h68v68z" fill="#ff7d00" stroke-width="0"/><path d="M406.83341,338.66671v-68h68v68z" fill="#ffad00" stroke-width="0"/><path d="M474.50005,338.66671v-68h68v68z" fill="#ff7d00" stroke-width="0"/><path d="M-67.33334,406.66671v-68h68v68z" fill="#ffad00" stroke-width="0"/><path d="M0.33336,406.66671v-68h68v68z" fill="#ff7d00" stroke-width="0"/><path d="M68.33334,406.66671v-68h68v68z" fill="#ffad00" stroke-width="0"/><path d="M136,406.66671v-68h68v68z" fill="#ff7d00" stroke-width="0"/><path d="M203.66671,406.66671v-68h68v68z" fill="#ffad00" stroke-width="0"/><path d="M271.33333,406.66671v-68h68v68z" fill="#ff7d00" stroke-width="0"/><path d="M339.33341,406.66671v-68h68v68z" fill="#ffad00" stroke-width="0"/><path d="M407.00008,406.66671v-68h68v68z" fill="#ff7d00" stroke-width="0"/><path d="M474.66672,406.66671v-68h68v68z" fill="#ffad00" stroke-width="0"/><text transform="translate(127.60717,42.28815) scale(0.8174,0.8174)" font-size="40" xml:space="preserve" fill="#ffffff" fill-rule="nonzero" stroke="none" stroke-width="1" stroke-linecap="butt" stroke-linejoin="miter" stroke-miterlimit="10" stroke-dasharray="" stroke-dashoffset="0" font-family="Pixel" font-weight="normal" text-anchor="start" style="mix-blend-mode: normal"><tspan x="0" dy="0">Game Paused</tspan></text><text transform="translate(67.30717,155.88156) scale(0.5,0.5)" font-size="40" xml:space="preserve" fill="#ffffff" fill-rule="nonzero" stroke="none" stroke-width="1" stroke-linecap="butt" stroke-linejoin="miter" stroke-miterlimit="10" stroke-dasharray="" stroke-dashoffset="0" font-family="Pixel" font-weight="normal" text-anchor="start" style="mix-blend-mode: normal"><tspan x="0" dy="0"> </tspan></text></g></g></svg>