<svg version="1.1" xmlns="http://www.w3.org/2000/svg" xmlns:xlink="http://www.w3.org/1999/xlink" width="119.83332" height="252.16666" viewBox="0,0,119.83332,252.16666"><g transform="translate(-180.08334,-53.91667)"><g data-paper-data="{&quot;isPaintingLayer&quot;:true}" fill-rule="nonzero" stroke="#000000" stroke-width="2.5" stroke-linecap="butt" stroke-linejoin="miter" stroke-miterlimit="10" stroke-dasharray="" stroke-dashoffset="0" style="mix-blend-mode: normal"><path d="M226.75047,148.90049l57.57647,15.65444l-3.41074,12.54459l-57.57647,-15.65444z" fill="#000000"/><path d="M219.50002,304.83333c-4.32623,0 -7.83333,-55.88979 -7.83333,-124.83333c0,-68.94355 3.5071,-124.83333 7.83333,-124.83333c4.32623,0 7.83333,55.88979 7.83333,124.83333c0,68.94355 -3.5071,124.83333 -7.83333,124.83333z" fill="#84edff"/><path d="M223.08554,201.35706l56.95299,-17.78955l3.87593,12.40875l-56.95299,17.78955z" fill="#000000"/><path d="M219.5,141.83334c21.07887,0 38.16666,17.0878 38.16666,38.16666c0,21.07887 -17.0878,38.16667 -38.16666,38.16667c-21.07887,0 -38.16666,-17.0878 -38.16666,-38.16667c0,-21.07887 17.08779,-38.16666 38.16666,-38.16666z" fill="#ffd200"/><path d="M266.33333,175.16668l32.33333,0v10l-32.33333,0z" fill="#000000"/><path d="M219.50002,208.16667c-5.15466,0 -9.33333,-12.61065 -9.33333,-28.16667c0,-15.55602 4.17868,-28.16667 9.33333,-28.16667c5.15466,0 9.33333,12.61065 9.33333,28.16667c0,15.55602 -4.17868,28.16667 -9.33333,28.16667z" fill="#b39c00"/><path d="M219.16669,155.16667c3.22166,0 5.83333,2.61167 5.83333,5.83333c0,3.22166 -2.61167,5.83333 -5.83333,5.83333c-3.22166,0 -5.83333,-2.61167 -5.83333,-5.83333c0,-3.22166 2.61167,-5.83333 5.83333,-5.83333z" fill="#000000"/><path d="M219.16669,193.16667c3.22166,0 5.83333,2.61167 5.83333,5.83333c0,3.22166 -2.61167,5.83333 -5.83333,5.83333c-3.22166,0 -5.83333,-2.61167 -5.83333,-5.83333c0,-3.22166 2.61167,-5.83333 5.83333,-5.83333z" fill="#000000"/><path d="M218.50002,161.16667c1.38071,0 2.5,3.28325 2.5,7.33333c0,4.05009 -1.11929,7.33334 -2.5,7.33334c-1.38071,0 -2.5,-3.28325 -2.5,-7.33334c0,-4.05009 1.11929,-7.33333 2.5,-7.33333z" fill="#000000"/><path d="M218.50002,181.5c1.38071,0 2.5,3.28325 2.5,7.33334c0,4.05008 -1.11929,7.33334 -2.5,7.33334c-1.38071,0 -2.5,-3.28325 -2.5,-7.33334c0,-4.05008 1.11929,-7.33334 2.5,-7.33334z" fill="#000000"/></g></g></svg>