<svg version="1.1" xmlns="http://www.w3.org/2000/svg" xmlns:xlink="http://www.w3.org/1999/xlink" width="119.83332" height="109.83333" viewBox="0,0,119.83332,109.83333"><g transform="translate(-180.08334,-125.08333)"><g data-paper-data="{&quot;isPaintingLayer&quot;:true}" fill-rule="nonzero" stroke="#000000" stroke-width="2.5" stroke-linecap="butt" stroke-linejoin="miter" stroke-miterlimit="10" stroke-dasharray="" stroke-dashoffset="0" style="mix-blend-mode: normal"><path d="M226.75047,148.56715l57.57647,15.65444l-3.41074,12.54459l-57.57647,-15.65444z" fill="#0054ff"/><path d="M223.08554,201.02372l56.95299,-17.78955l3.87593,12.40875l-56.95299,17.78955z" fill="#0054ff"/><path d="M219.5,141.49999c21.07887,0 38.16666,17.0878 38.16666,38.16666c0,21.07887 -17.0878,38.16667 -38.16666,38.16667c-21.07887,0 -38.16666,-17.0878 -38.16666,-38.16667c0,-21.07887 17.08779,-38.16666 38.16666,-38.16666z" fill="#ffd200"/><path d="M266.33333,174.83333l32.33333,0v10h-32.33333z" fill="#000000"/><path d="M223.72955,137.99989l45.34864,42.19847l-12.84301,13.80176l-45.34864,-42.19847z" fill="#ff9600"/><path d="M182.54136,126.33333h76.33333l0,107.33333h-76.33333z" fill="#9e7b00"/><path d="M182.54136,171h76.33333l0,18l-76.33333,0z" fill="#9e7b00"/></g></g></svg>