<svg version="1.1" xmlns="http://www.w3.org/2000/svg" xmlns:xlink="http://www.w3.org/1999/xlink" width="109.83333" height="155.58355" viewBox="0,0,109.83333,155.58355"><g transform="translate(-185.08333,-101.07073)"><g data-paper-data="{&quot;isPaintingLayer&quot;:true}" fill-rule="nonzero" stroke-linecap="butt" stroke-linejoin="miter" stroke-miterlimit="10" stroke-dasharray="" stroke-dashoffset="0" style="mix-blend-mode: normal"><path d="M208.56716,174.23692l15.65444,-57.57647l12.54459,3.41074l-15.65444,57.57647z" fill="#0054ff" stroke="#000000" stroke-width="2.5"/><path d="M261.02373,177.90185l-17.78955,-56.95299l12.40875,-3.87593l17.78955,56.95299z" fill="#0054ff" stroke="#000000" stroke-width="2.5"/><path d="M201.50001,181.48738c0,-21.07887 17.0878,-38.16666 38.16666,-38.16666c21.07887,0 38.16667,17.0878 38.16667,38.16666c0,21.07887 -17.0878,38.16666 -38.16667,38.16666c-21.07887,0 -38.16666,-17.08779 -38.16666,-38.16666z" fill="#ffd200" stroke="#000000" stroke-width="2.5"/><path d="M234.83334,134.65406v-32.33333h10v32.33333z" fill="#000000" stroke="#000000" stroke-width="2.5"/><text transform="translate(187.04194,249.47931) scale(0.68333,0.68333)" font-size="40" xml:space="preserve" fill="#ffffff" fill-rule="nonzero" stroke="none" stroke-width="1" stroke-linecap="butt" stroke-linejoin="miter" stroke-miterlimit="10" stroke-dasharray="" stroke-dashoffset="0" font-family="Pixel" font-weight="normal" text-anchor="start" style="mix-blend-mode: normal"><tspan x="0" dy="0">Basicali</tspan></text><path d="M197.9999,177.25783l42.19847,-45.34864l13.80176,12.84301l-42.19847,45.34864z" fill="#ff9600" stroke="#000000" stroke-width="2.5"/><path d="M186.33334,218.44602v-76.33333h107.33333v76.33333z" fill="#9e7b00" stroke="#000000" stroke-width="2.5"/><path d="M231.00001,218.44602v-76.33333h18v76.33333z" fill="#9e7b00" stroke="#000000" stroke-width="2.5"/></g></g></svg>